<?xml version="1.0" encoding="UTF-8"?>
<svg xmlns="http://www.w3.org/2000/svg" xmlns:xlink="http://www.w3.org/1999/xlink" viewBox="0 0 150 150" width="150px" height="150px">
<g id="surface125912251">
<path style=" stroke:none;fill-rule:nonzero;fill:rgb(74.509805%,10.196079%,10.196079%);fill-opacity:1;" d="M 111.105469 16.863281 L 93 6 L 107.144531 21.589844 C 117.449219 33.222656 123 44.230469 123 57 C 123 74.195312 112.925781 81 102 81 C 87.445312 81 84 69.652344 84 66 C 84 54.257812 94.644531 44.527344 104.273438 41.136719 L 109.042969 39.460938 L 94.953125 25.925781 C 93.441406 26.890625 92.386719 27.617188 92.386719 27.617188 C 91.132812 28.476562 89.265625 29.914062 87.058594 32.121094 C 87.058594 32.121094 83.761719 35.8125 80.996094 39 C 80.996094 33 82.066406 29.113281 82.066406 29.113281 C 83.140625 25.660156 85.175781 22.90625 86.835938 21.101562 L 88.96875 18.988281 L 75.085938 6 L 75 6.074219 L 74.914062 6 L 61.027344 18.984375 L 63.160156 21.097656 C 64.816406 22.90625 66.855469 25.660156 67.925781 29.109375 C 67.929688 29.113281 69 33 69 39 C 65.484375 34.453125 62.941406 32.121094 62.941406 32.121094 C 60.734375 29.914062 58.867188 28.480469 57.613281 27.617188 C 57.613281 27.617188 56.554688 26.890625 55.042969 25.925781 L 40.953125 39.460938 L 45.722656 41.136719 C 55.355469 44.527344 66 54.257812 66 66 C 66 69.652344 62.554688 81 48 81 C 37.074219 81 27 74.195312 27 57 C 27 44.230469 32.550781 33.222656 42.855469 21.589844 L 57 6 L 38.894531 16.863281 C 19.402344 28.390625 7.414062 47.824219 6 70.386719 L 6 75.546875 C 6 113.292969 36.953125 144 75 144 C 113.046875 144 144 113.292969 144 75.546875 L 144 70.386719 C 142.585938 47.824219 130.597656 28.390625 111.105469 16.863281 Z M 111.105469 16.863281 "/>
</g>
</svg>
