<?xml version="1.0" encoding="UTF-8"?>
<svg xmlns="http://www.w3.org/2000/svg" xmlns:xlink="http://www.w3.org/1999/xlink" viewBox="7 10 130 125" width="150px" height="150px">
<g id="surface126216419">
<path style=" stroke:none;fill-rule:nonzero;fill:rgb(2.352941%,25.882354%,53.333336%);fill-opacity:1;" d="M 72.59375 14.0625 C 72.59375 14.0625 71.128906 70.074219 70.523438 93.0625 L 62.3125 81.0625 L 67.59375 95.570312 L 51.222656 97.953125 L 67.59375 100.332031 L 61.265625 112.730469 L 70.285156 103.261719 C 69.816406 121.253906 69.707031 125.675781 69.707031 125.675781 C 69.707031 125.675781 29.335938 106.925781 51.773438 65.496094 C 51.773438 65.496094 23.792969 34.601562 49.136719 15.617188 C 49.136719 15.617188 5.855469 41.753906 33.316406 86.628906 C 33.316406 86.628906 10.613281 64.453125 22.484375 42.042969 C 22.484375 42.042969 1.90625 71.066406 26.988281 102.996094 C 26.988281 102.996094 20.136719 98.792969 14.070312 82.679688 C 14.070312 82.679688 18.484375 130.617188 72.125 131.242188 L 73.195312 131.242188 C 126.800781 130.621094 131.25 82.691406 131.25 82.691406 C 125.078125 98.773438 118.203125 103.007812 118.203125 103.007812 C 143.28125 71.074219 122.699219 42.050781 122.699219 42.050781 C 134.574219 64.488281 111.867188 86.636719 111.867188 86.636719 C 139.328125 41.785156 96.046875 15.636719 96.046875 15.636719 C 121.386719 34.648438 93.410156 65.507812 93.410156 65.507812 C 115.851562 106.929688 75.476562 125.683594 75.476562 125.683594 C 75.476562 125.683594 75.371094 121.261719 74.898438 103.273438 C 76.023438 104.449219 83.917969 112.738281 83.917969 112.738281 L 77.589844 100.34375 L 93.96875 97.960938 L 77.589844 95.582031 L 82.875 81.070312 L 74.660156 93.074219 C 74.078125 70.132812 72.621094 14.53125 72.59375 14.0625 Z M 72.59375 14.0625 "/>
</g>
</svg>
